<?xml version="1.0" standalone="no"?>
<!DOCTYPE svg PUBLIC "-//W3C//DTD SVG 20010904//EN"
 "http://www.w3.org/TR/2001/REC-SVG-20010904/DTD/svg10.dtd">
<svg version="1.0" xmlns="http://www.w3.org/2000/svg"
 width="400.000000pt" height="400.000000pt" viewBox="0 0 400.000000 400.000000"
 preserveAspectRatio="xMidYMid meet">

<g transform="translate(0.000000,400.000000) scale(0.100000,-0.100000)"
fill="#000000" stroke="none">
<path d="M1915 3954 c-11 -9 -32 -20 -47 -26 -16 -5 -28 -14 -28 -19 0 -5 -9
-9 -20 -9 -11 0 -20 -4 -20 -8 0 -4 -21 -19 -47 -33 -78 -41 -98 -52 -103 -58
-6 -7 -38 -26 -90 -53 -19 -10 -48 -27 -65 -38 -31 -19 -64 -39 -125 -72 -19
-10 -48 -27 -65 -38 -16 -11 -43 -26 -60 -35 -16 -9 -48 -27 -70 -40 -67 -41
-151 -89 -185 -107 -14 -7 -27 -15 -30 -19 -3 -3 -30 -19 -60 -36 -30 -17 -90
-51 -133 -77 -43 -25 -80 -46 -83 -46 -3 0 -18 -8 -32 -19 -15 -10 -47 -29
-72 -43 -191 -106 -227 -132 -245 -174 -13 -32 -15 -157 -15 -981 0 -1050 -5
-974 68 -1023 20 -13 60 -36 87 -50 28 -15 85 -48 128 -73 43 -26 79 -47 81
-47 2 0 45 -25 95 -55 51 -30 93 -55 95 -55 2 0 34 -18 70 -40 36 -22 70 -40
76 -40 5 0 10 -4 10 -8 0 -4 15 -15 33 -24 58 -28 152 -82 165 -95 7 -7 18
-13 23 -13 7 0 66 -34 134 -78 11 -7 34 -19 50 -27 17 -8 48 -26 70 -40 22
-13 54 -31 70 -40 34 -16 67 -37 75 -46 3 -3 21 -13 40 -23 19 -9 53 -28 75
-41 161 -94 184 -105 223 -105 29 0 63 13 121 45 44 25 83 50 86 55 4 6 15 10
26 10 10 0 19 4 19 10 0 5 15 17 33 25 39 19 92 49 132 75 17 11 44 26 60 35
17 8 48 26 70 39 22 14 65 39 95 56 30 17 72 41 92 53 50 30 132 77 193 112
28 15 55 31 60 35 14 11 81 49 144 82 30 15 61 34 70 42 9 7 52 33 96 56 44
24 82 46 85 50 3 4 39 26 82 48 112 60 166 100 183 132 13 25 15 159 15 980 0
1061 5 992 -71 1030 -22 12 -66 37 -97 58 -31 20 -79 48 -107 62 -27 14 -68
37 -90 51 -22 14 -51 30 -65 37 -14 6 -34 18 -44 24 -61 40 -126 78 -132 78
-3 0 -34 17 -68 38 -95 58 -100 60 -124 71 -12 6 -46 25 -75 43 -29 18 -62 38
-73 45 -10 7 -41 24 -69 39 -27 14 -62 35 -77 45 -14 11 -31 19 -36 19 -6 0
-17 6 -24 13 -7 7 -24 18 -38 25 -14 7 -40 21 -57 32 -64 39 -99 59 -161 92
-35 18 -68 39 -74 45 -6 7 -14 13 -19 13 -4 0 -35 16 -68 35 -66 39 -131 46
-166 19z m180 -379 c28 -15 54 -31 60 -36 5 -5 17 -9 26 -9 10 0 19 -4 21 -8
2 -5 28 -22 58 -39 88 -49 151 -84 210 -116 30 -16 65 -36 77 -43 13 -8 62
-35 110 -60 49 -26 90 -50 93 -53 3 -4 25 -17 50 -29 25 -12 68 -35 95 -51 44
-26 73 -42 198 -108 l27 -15 -2 -718 -3 -718 -25 -21 c-14 -11 -34 -23 -45
-27 -11 -4 -44 -20 -73 -37 -61 -34 -60 -38 23 -82 28 -15 67 -39 88 -52 35
-24 37 -29 37 -77 0 -39 -5 -56 -20 -69 -11 -9 -24 -17 -29 -17 -5 0 -16 -6
-23 -13 -7 -7 -40 -28 -73 -46 -33 -18 -64 -36 -70 -41 -5 -4 -46 -28 -90 -52
-44 -25 -131 -75 -194 -112 -62 -36 -117 -66 -121 -66 -4 0 -15 -9 -25 -20
-10 -11 -23 -20 -30 -20 -6 0 -31 -13 -56 -28 -24 -16 -71 -43 -103 -61 -32
-17 -92 -52 -132 -76 -41 -25 -77 -45 -81 -45 -5 0 -19 -9 -33 -20 -29 -23
-67 -26 -95 -7 -11 8 -45 27 -75 44 -92 50 -134 74 -160 93 -14 9 -38 24 -55
32 -47 24 -174 97 -242 139 -34 22 -69 39 -76 39 -8 0 -22 9 -32 20 -10 11
-22 20 -26 20 -5 0 -32 15 -61 33 -29 18 -64 38 -78 45 -14 7 -43 23 -65 37
-22 14 -49 30 -60 35 -11 6 -38 21 -60 35 -22 13 -50 29 -62 34 -39 18 -56 56
-49 106 4 25 12 45 18 45 6 0 19 6 27 14 9 7 42 27 75 45 32 17 77 44 100 60
22 15 48 31 56 34 8 4 29 15 45 26 31 19 76 45 155 89 25 14 73 43 108 64 34
21 67 38 72 38 6 0 10 5 10 10 0 6 5 10 11 10 7 0 40 18 75 40 35 22 71 40 79
40 9 0 18 7 21 15 3 8 15 17 27 21 11 3 43 21 71 39 28 18 61 35 74 39 12 4
22 11 22 15 0 4 20 16 45 27 l45 18 0 829 0 829 33 -20 c17 -11 55 -32 82 -47z"/>
</g>
</svg>
